<svg xmlns="http://www.w3.org/2000/svg" xmlns:xlink="http://www.w3.org/1999/xlink" width="500" zoomAndPan="magnify" viewBox="0 0 375 374.999991" height="500" preserveAspectRatio="xMidYMid meet" version="1.0"><defs><g/><clipPath id="id1"><path d="M 59.53125 34.785156 L 315.28125 34.785156 L 315.28125 106 L 59.53125 106 Z M 59.53125 34.785156 " clip-rule="nonzero"/></clipPath><clipPath id="id2"><path d="M 59.53125 266.488281 L 315.28125 266.488281 L 315.28125 337.492188 L 59.53125 337.492188 Z M 59.53125 266.488281 " clip-rule="nonzero"/></clipPath><clipPath id="id3"><path d="M 113 266.488281 L 262 266.488281 L 262 297 L 113 297 Z M 113 266.488281 " clip-rule="nonzero"/></clipPath></defs><g clip-path="url(#id1)"><path fill="#ffffff" d="M 315.28125 106 L 313.253906 103.253906 C 311.90625 101.492188 310.066406 98.773438 307.359375 95.636719 C 306.015625 94.0625 304.644531 92.226562 302.941406 90.402344 L 297.421875 84.507812 L 290.777344 78.195312 C 288.296875 76.132812 285.761719 73.867188 283.023438 71.648438 C 277.417969 67.367188 271.238281 62.816406 264.164062 58.894531 C 257.207031 54.792969 249.441406 51.246094 241.25 48.078125 C 233.074219 44.839844 224.230469 42.628906 215.203125 40.828125 C 206.125 39.148438 196.765625 38.46875 187.40625 38.347656 C 177.976562 38.472656 168.699219 39.148438 159.613281 40.828125 C 150.582031 42.628906 141.738281 44.84375 133.558594 48.085938 C 125.363281 51.25 117.605469 54.804688 110.648438 58.917969 C 103.574219 62.835938 97.390625 67.375 91.785156 71.664062 C 89.027344 73.878906 86.519531 76.144531 84.03125 78.210938 L 77.382812 84.507812 L 71.867188 90.402344 C 70.164062 92.226562 68.789062 94.066406 67.445312 95.640625 C 64.742188 98.789062 62.910156 101.484375 61.5625 103.253906 C 60.214844 105.027344 59.53125 106 59.53125 106 C 59.53125 106 60.183594 105.007812 61.40625 103.148438 C 62.660156 101.3125 64.3125 98.46875 66.921875 95.214844 C 68.203125 93.578125 69.515625 91.671875 71.148438 89.765625 C 72.785156 87.859375 74.554688 85.800781 76.449219 83.597656 L 82.878906 76.953125 C 85.292969 74.765625 87.816406 72.433594 90.535156 70.109375 C 96.101562 65.621094 102.261719 60.855469 109.34375 56.683594 C 116.699219 52.140625 124.40625 48.320312 132.472656 45.226562 C 140.785156 41.847656 149.800781 39.503906 159.011719 37.589844 C 168.261719 35.800781 177.902344 35.007812 187.40625 34.820312 C 196.976562 35.019531 206.542969 35.800781 215.800781 37.589844 C 225.011719 39.503906 234.019531 41.847656 242.355469 45.230469 C 250.417969 48.328125 258.125 52.148438 265.480469 56.691406 C 272.5625 60.859375 278.722656 65.625 284.289062 70.113281 C 287.011719 72.4375 289.53125 74.765625 291.945312 76.957031 L 298.386719 83.601562 L 303.6875 89.769531 C 305.324219 91.671875 306.636719 93.585938 307.921875 95.222656 C 310.523438 98.480469 312.160156 101.3125 313.421875 103.148438 C 314.628906 105.007812 315.28125 106 315.28125 106 Z M 315.28125 106 " fill-opacity="1" fill-rule="nonzero"/></g><path fill="#ffffff" d="M 261.414062 106 C 261.414062 106 259.433594 104.402344 255.835938 101.824219 C 254.082031 100.503906 251.824219 99.039062 249.242188 97.382812 C 246.613281 95.789062 243.613281 94.074219 240.28125 92.328125 C 236.679688 90.476562 232.988281 88.824219 229.207031 87.382812 C 225.195312 85.808594 220.867188 84.492188 216.359375 83.257812 C 206.867188 80.761719 197.21875 79.542969 187.40625 79.601562 C 177.59375 79.546875 167.941406 80.765625 158.445312 83.257812 C 153.933594 84.492188 149.605469 85.816406 145.601562 87.386719 C 141.566406 88.878906 137.890625 90.660156 134.527344 92.332031 C 131.195312 94.078125 128.195312 95.796875 125.566406 97.386719 C 122.980469 99.039062 120.738281 100.507812 118.96875 101.832031 C 115.375 104.40625 113.394531 105.996094 113.394531 105.996094 L 114.71875 104.738281 C 115.597656 103.9375 116.8125 102.671875 118.546875 101.277344 C 120.222656 99.808594 122.359375 98.160156 124.839844 96.28125 L 128.894531 93.445312 C 130.375 92.519531 131.929688 91.542969 133.582031 90.574219 C 140.234375 86.796875 148.363281 82.847656 157.65625 80.292969 C 166.875 77.65625 177.191406 76.171875 187.417969 76.0625 C 197.699219 76.183594 207.925781 77.65625 217.175781 80.296875 C 226.453125 82.863281 234.589844 86.8125 241.25 90.578125 C 242.902344 91.542969 244.460938 92.519531 245.9375 93.449219 L 249.992188 96.285156 C 252.472656 98.160156 254.609375 99.8125 256.289062 101.28125 C 258.027344 102.679688 259.238281 103.933594 260.117188 104.738281 Z M 261.414062 106 " fill-opacity="1" fill-rule="nonzero"/><g clip-path="url(#id2)"><path fill="#ffffff" d="M 315.28125 266.28125 L 313.253906 269.023438 C 311.90625 270.785156 310.066406 273.503906 307.359375 276.644531 C 306.015625 278.21875 304.644531 280.050781 302.941406 281.875 L 297.421875 287.773438 L 290.777344 294.082031 C 288.296875 296.144531 285.761719 298.414062 283.023438 300.632812 C 277.417969 304.914062 271.238281 309.460938 264.164062 313.382812 C 257.207031 317.488281 249.441406 321.03125 241.25 324.199219 C 233.074219 327.4375 224.230469 329.652344 215.203125 331.453125 C 206.125 333.128906 196.765625 333.8125 187.40625 333.933594 C 177.976562 333.804688 168.699219 333.128906 159.613281 331.453125 C 150.582031 329.652344 141.738281 327.433594 133.558594 324.191406 C 125.363281 321.027344 117.605469 317.472656 110.648438 313.363281 C 103.574219 309.441406 97.390625 304.90625 91.785156 300.613281 C 89.027344 298.398438 86.519531 296.132812 84.03125 294.066406 L 77.382812 287.769531 L 71.867188 281.875 C 70.164062 280.050781 68.789062 278.210938 67.445312 276.636719 C 64.742188 273.488281 62.910156 270.792969 61.5625 269.023438 C 60.214844 267.253906 59.53125 266.28125 59.53125 266.28125 C 59.53125 266.28125 60.183594 267.269531 61.40625 269.128906 C 62.660156 270.964844 64.3125 273.808594 66.921875 277.0625 C 68.203125 278.699219 69.515625 280.605469 71.148438 282.511719 C 72.785156 284.417969 74.554688 286.476562 76.449219 288.679688 L 82.878906 295.324219 C 85.292969 297.511719 87.816406 299.84375 90.535156 302.167969 C 96.101562 306.65625 102.261719 311.421875 109.34375 315.59375 C 116.699219 320.136719 124.40625 323.957031 132.472656 327.050781 C 140.785156 330.429688 149.800781 332.777344 159.011719 334.6875 C 168.261719 336.476562 177.902344 337.269531 187.40625 337.457031 C 196.976562 337.257812 206.542969 336.476562 215.800781 334.6875 C 225.011719 332.773438 234.019531 330.429688 242.355469 327.050781 C 250.417969 323.953125 258.125 320.132812 265.480469 315.585938 C 272.5625 311.417969 278.722656 306.652344 284.289062 302.164062 C 287.011719 299.839844 289.53125 297.511719 291.945312 295.320312 L 298.386719 288.675781 L 303.6875 282.507812 C 305.324219 280.605469 306.636719 278.691406 307.921875 277.054688 C 310.523438 273.796875 312.160156 270.964844 313.421875 269.128906 C 314.628906 267.269531 315.28125 266.28125 315.28125 266.28125 Z M 315.28125 266.28125 " fill-opacity="1" fill-rule="nonzero"/></g><g clip-path="url(#id3)"><path fill="#ffffff" d="M 261.414062 266.28125 C 261.414062 266.28125 259.433594 267.875 255.835938 270.453125 C 254.082031 271.773438 251.824219 273.242188 249.242188 274.894531 C 246.613281 276.488281 243.613281 278.203125 240.28125 279.949219 C 236.679688 281.804688 232.988281 283.453125 229.207031 284.894531 C 225.195312 286.46875 220.867188 287.785156 216.359375 289.019531 C 206.867188 291.519531 197.21875 292.734375 187.40625 292.675781 C 177.59375 292.734375 167.941406 291.515625 158.445312 289.019531 C 153.933594 287.785156 149.605469 286.460938 145.601562 284.890625 C 141.566406 283.398438 137.890625 281.617188 134.527344 279.945312 C 131.195312 278.199219 128.195312 276.480469 125.566406 274.894531 C 122.980469 273.238281 120.738281 271.769531 118.96875 270.449219 C 115.375 267.871094 113.394531 266.28125 113.394531 266.28125 L 114.71875 267.539062 C 115.597656 268.339844 116.8125 269.605469 118.546875 271 C 120.222656 272.46875 122.359375 274.117188 124.839844 275.996094 L 128.894531 278.835938 C 130.375 279.757812 131.929688 280.734375 133.582031 281.703125 C 140.234375 285.480469 148.363281 289.429688 157.65625 291.984375 C 166.875 294.621094 177.191406 296.109375 187.417969 296.214844 C 197.699219 296.09375 207.925781 294.621094 217.175781 291.984375 C 226.453125 289.417969 234.589844 285.464844 241.25 281.699219 C 242.902344 280.734375 244.460938 279.757812 245.9375 278.828125 L 249.992188 275.992188 C 252.472656 274.117188 254.609375 272.464844 256.289062 270.996094 C 258.027344 269.597656 259.238281 268.34375 260.117188 267.539062 Z M 261.414062 266.28125 " fill-opacity="1" fill-rule="nonzero"/></g><g fill="#ffffff" fill-opacity="1"><g transform="translate(105.296292, 167.283723)"><g><path d="M 25.738281 -51.605469 C 24.964844 -51.605469 24.511719 -51.21875 24.320312 -50.445312 L 17.480469 -15.867188 L 10.707031 -50.445312 C 10.515625 -51.21875 10.0625 -51.605469 9.289062 -51.605469 L 3.160156 -51.605469 C 2.191406 -51.605469 1.804688 -51.089844 2 -50.1875 L 12.835938 -1.160156 C 13.03125 -0.386719 13.480469 0 14.257812 0 L 20.707031 0 C 21.480469 0 21.933594 -0.386719 22.125 -1.160156 L 33.027344 -50.1875 C 33.222656 -51.089844 32.835938 -51.605469 31.867188 -51.605469 Z M 25.738281 -51.605469 "/></g></g></g><g fill="#ffffff" fill-opacity="1"><g transform="translate(140.319777, 167.283723)"><g><path d="M 4.257812 -51.605469 C 3.546875 -51.605469 3.226562 -51.21875 3.226562 -50.574219 L 3.226562 -1.03125 C 3.226562 -0.386719 3.546875 0 4.257812 0 L 10.964844 0 C 11.613281 0 12 -0.386719 12 -1.03125 L 12 -50.574219 C 12 -51.21875 11.613281 -51.605469 10.964844 -51.605469 Z M 4.257812 -51.605469 "/></g></g></g><g fill="#ffffff" fill-opacity="1"><g transform="translate(155.541768, 167.283723)"><g><path d="M 4.773438 -51.605469 C 4.128906 -51.542969 3.742188 -51.21875 3.742188 -50.507812 L 3.742188 -44.058594 C 3.742188 -43.414062 4.128906 -43.027344 4.773438 -43.027344 L 18.125 -43.027344 L 2.0625 -1.546875 C 1.675781 -0.644531 2 0 3.03125 0 L 28.125 0 C 28.769531 -0.0664062 29.15625 -0.453125 29.15625 -1.097656 L 29.15625 -7.484375 C 29.15625 -8.191406 28.769531 -8.515625 28.125 -8.515625 L 13.933594 -8.515625 L 29.996094 -50.058594 C 30.320312 -50.960938 30.058594 -51.605469 29.027344 -51.605469 Z M 4.773438 -51.605469 "/></g></g></g><g fill="#ffffff" fill-opacity="1"><g transform="translate(188.243258, 167.283723)"><g><path d="M 4.257812 -51.605469 C 3.546875 -51.605469 3.226562 -51.21875 3.226562 -50.574219 L 3.226562 -1.03125 C 3.226562 -0.386719 3.546875 0 4.257812 0 L 10.964844 0 C 11.613281 0 12 -0.386719 12 -1.03125 L 12 -50.574219 C 12 -51.21875 11.613281 -51.605469 10.964844 -51.605469 Z M 4.257812 -51.605469 "/></g></g></g><g fill="#ffffff" fill-opacity="1"><g transform="translate(203.46525, 167.283723)"><g><path d="M 3.226562 -9.289062 C 3.226562 -3.226562 6.449219 0 12.515625 0 L 19.738281 0 C 25.804688 0 29.027344 -3.226562 29.027344 -9.289062 L 29.027344 -42.316406 C 29.027344 -48.378906 25.804688 -51.605469 19.738281 -51.605469 L 12.515625 -51.605469 C 6.449219 -51.605469 3.226562 -48.378906 3.226562 -42.316406 Z M 14.386719 -8.320312 C 12.707031 -8.320312 11.804688 -9.160156 11.804688 -10.902344 L 11.804688 -40.703125 C 11.804688 -42.382812 12.707031 -43.285156 14.386719 -43.285156 L 18.125 -43.285156 C 19.804688 -43.285156 20.707031 -42.382812 20.707031 -40.703125 L 20.707031 -10.902344 C 20.707031 -9.160156 19.804688 -8.320312 18.125 -8.320312 Z M 14.386719 -8.320312 "/></g></g></g><g fill="#ffffff" fill-opacity="1"><g transform="translate(235.715237, 167.283723)"><g><path d="M 23.027344 -51.605469 C 22.320312 -51.605469 21.996094 -51.21875 21.996094 -50.574219 L 21.996094 -23.351562 L 21.609375 -23.351562 L 11.804688 -50.765625 C 11.613281 -51.347656 11.222656 -51.605469 10.644531 -51.605469 L 4.257812 -51.605469 C 3.613281 -51.605469 3.226562 -51.21875 3.226562 -50.574219 L 3.226562 -1.03125 C 3.226562 -0.386719 3.613281 0 4.257812 0 L 10.964844 0 C 11.675781 0 12 -0.386719 12 -1.03125 L 12 -28.382812 L 12.320312 -28.382812 L 22.191406 -0.839844 C 22.382812 -0.257812 22.769531 0 23.351562 0 L 29.738281 0 C 30.382812 0 30.769531 -0.386719 30.769531 -1.03125 L 30.769531 -50.574219 C 30.769531 -51.21875 30.382812 -51.605469 29.738281 -51.605469 Z M 23.027344 -51.605469 "/></g></g></g><g fill="#ffffff" fill-opacity="1"><g transform="translate(51.627747, 243.959384)"><g><path d="M 12.515625 -51.605469 C 6.515625 -51.605469 3.226562 -48.378906 3.226562 -42.316406 L 3.226562 -27.09375 C 3.226562 -25.867188 3.804688 -25.09375 4.96875 -24.707031 L 20.253906 -19.675781 L 20.253906 -11.09375 C 20.253906 -9.355469 19.351562 -8.515625 17.675781 -8.515625 L 14.578125 -8.515625 C 12.964844 -8.515625 12 -9.355469 12 -11.09375 L 12 -16.0625 C 12 -16.773438 11.675781 -17.09375 10.964844 -17.09375 L 4.257812 -17.09375 C 3.613281 -17.09375 3.226562 -16.773438 3.226562 -16.0625 L 3.226562 -9.289062 C 3.226562 -3.226562 6.515625 0 12.515625 0 L 19.738281 0 C 25.804688 0 29.027344 -3.226562 29.027344 -9.289062 L 29.027344 -24.191406 C 29.027344 -25.414062 28.449219 -26.125 27.351562 -26.578125 L 12 -31.609375 L 12 -40.511719 C 12 -42.1875 12.964844 -43.089844 14.578125 -43.089844 L 17.675781 -43.089844 C 19.417969 -43.089844 20.253906 -42.1875 20.253906 -40.511719 L 20.253906 -35.480469 C 20.253906 -34.835938 20.640625 -34.445312 21.289062 -34.445312 L 27.996094 -34.445312 C 28.707031 -34.445312 29.027344 -34.835938 29.027344 -35.480469 L 29.027344 -42.316406 C 29.027344 -48.378906 25.804688 -51.605469 19.738281 -51.605469 Z M 12.515625 -51.605469 "/></g></g></g><g fill="#ffffff" fill-opacity="1"><g transform="translate(83.877734, 243.959384)"><g><path d="M 3.226562 -9.289062 C 3.226562 -3.226562 6.449219 0 12.515625 0 L 19.738281 0 C 25.804688 0 29.027344 -3.226562 29.027344 -9.289062 L 29.027344 -42.316406 C 29.027344 -48.378906 25.804688 -51.605469 19.738281 -51.605469 L 12.515625 -51.605469 C 6.449219 -51.605469 3.226562 -48.378906 3.226562 -42.316406 Z M 14.386719 -8.320312 C 12.707031 -8.320312 11.804688 -9.160156 11.804688 -10.902344 L 11.804688 -40.703125 C 11.804688 -42.382812 12.707031 -43.285156 14.386719 -43.285156 L 18.125 -43.285156 C 19.804688 -43.285156 20.707031 -42.382812 20.707031 -40.703125 L 20.707031 -10.902344 C 20.707031 -9.160156 19.804688 -8.320312 18.125 -8.320312 Z M 14.386719 -8.320312 "/></g></g></g><g fill="#ffffff" fill-opacity="1"><g transform="translate(116.127721, 243.959384)"><g><path d="M 12 -8.515625 L 27.351562 -8.515625 C 28.0625 -8.515625 28.382812 -8.128906 28.382812 -7.484375 L 28.382812 -1.03125 C 28.382812 -0.324219 28.0625 0 27.351562 0 L 4.257812 0 C 3.613281 0 3.226562 -0.324219 3.226562 -1.03125 L 3.226562 -50.574219 C 3.226562 -51.21875 3.613281 -51.605469 4.257812 -51.605469 L 10.964844 -51.605469 C 11.675781 -51.605469 12 -51.21875 12 -50.574219 Z M 12 -8.515625 "/></g></g></g><g fill="#ffffff" fill-opacity="1"><g transform="translate(147.732707, 243.959384)"><g><path d="M 21.804688 -51.605469 C 21.09375 -51.605469 20.511719 -51.027344 20.511719 -50.316406 L 20.511719 -11.09375 C 20.511719 -9.355469 19.609375 -8.515625 17.933594 -8.515625 L 14.578125 -8.515625 C 12.902344 -8.515625 12 -9.355469 12 -11.09375 L 12 -50.316406 C 12 -51.027344 11.417969 -51.605469 10.707031 -51.605469 L 4.515625 -51.605469 C 3.804688 -51.605469 3.226562 -51.027344 3.226562 -50.316406 L 3.226562 -9.289062 C 3.226562 -3.226562 6.449219 0 12.515625 0 L 19.738281 0 C 25.804688 0 29.027344 -3.226562 29.027344 -9.289062 L 29.027344 -50.316406 C 29.027344 -51.027344 28.449219 -51.605469 27.738281 -51.605469 Z M 21.804688 -51.605469 "/></g></g></g><g fill="#ffffff" fill-opacity="1"><g transform="translate(179.982693, 243.959384)"><g><path d="M 2.96875 -51.605469 C 2.324219 -51.605469 1.933594 -51.21875 1.933594 -50.574219 L 1.933594 -44.125 C 1.933594 -43.476562 2.324219 -43.089844 2.96875 -43.089844 L 10.449219 -43.089844 L 10.449219 -1.03125 C 10.449219 -0.324219 10.835938 0 11.480469 0 L 18.191406 0 C 18.902344 0 19.222656 -0.324219 19.222656 -1.03125 L 19.222656 -43.089844 L 26.707031 -43.089844 C 27.414062 -43.089844 27.738281 -43.476562 27.738281 -44.125 L 27.738281 -50.574219 C 27.738281 -51.21875 27.414062 -51.605469 26.707031 -51.605469 Z M 2.96875 -51.605469 "/></g></g></g><g fill="#ffffff" fill-opacity="1"><g transform="translate(209.652678, 243.959384)"><g><path d="M 4.257812 -51.605469 C 3.546875 -51.605469 3.226562 -51.21875 3.226562 -50.574219 L 3.226562 -1.03125 C 3.226562 -0.386719 3.546875 0 4.257812 0 L 10.964844 0 C 11.613281 0 12 -0.386719 12 -1.03125 L 12 -50.574219 C 12 -51.21875 11.613281 -51.605469 10.964844 -51.605469 Z M 4.257812 -51.605469 "/></g></g></g><g fill="#ffffff" fill-opacity="1"><g transform="translate(224.874669, 243.959384)"><g><path d="M 3.226562 -9.289062 C 3.226562 -3.226562 6.449219 0 12.515625 0 L 19.738281 0 C 25.804688 0 29.027344 -3.226562 29.027344 -9.289062 L 29.027344 -42.316406 C 29.027344 -48.378906 25.804688 -51.605469 19.738281 -51.605469 L 12.515625 -51.605469 C 6.449219 -51.605469 3.226562 -48.378906 3.226562 -42.316406 Z M 14.386719 -8.320312 C 12.707031 -8.320312 11.804688 -9.160156 11.804688 -10.902344 L 11.804688 -40.703125 C 11.804688 -42.382812 12.707031 -43.285156 14.386719 -43.285156 L 18.125 -43.285156 C 19.804688 -43.285156 20.707031 -42.382812 20.707031 -40.703125 L 20.707031 -10.902344 C 20.707031 -9.160156 19.804688 -8.320312 18.125 -8.320312 Z M 14.386719 -8.320312 "/></g></g></g><g fill="#ffffff" fill-opacity="1"><g transform="translate(257.124667, 243.959384)"><g><path d="M 23.027344 -51.605469 C 22.320312 -51.605469 21.996094 -51.21875 21.996094 -50.574219 L 21.996094 -23.351562 L 21.609375 -23.351562 L 11.804688 -50.765625 C 11.613281 -51.347656 11.222656 -51.605469 10.644531 -51.605469 L 4.257812 -51.605469 C 3.613281 -51.605469 3.226562 -51.21875 3.226562 -50.574219 L 3.226562 -1.03125 C 3.226562 -0.386719 3.613281 0 4.257812 0 L 10.964844 0 C 11.675781 0 12 -0.386719 12 -1.03125 L 12 -28.382812 L 12.320312 -28.382812 L 22.191406 -0.839844 C 22.382812 -0.257812 22.769531 0 23.351562 0 L 29.738281 0 C 30.382812 0 30.769531 -0.386719 30.769531 -1.03125 L 30.769531 -50.574219 C 30.769531 -51.21875 30.382812 -51.605469 29.738281 -51.605469 Z M 23.027344 -51.605469 "/></g></g></g><g fill="#ffffff" fill-opacity="1"><g transform="translate(291.116135, 243.959384)"><g><path d="M 12.515625 -51.605469 C 6.515625 -51.605469 3.226562 -48.378906 3.226562 -42.316406 L 3.226562 -27.09375 C 3.226562 -25.867188 3.804688 -25.09375 4.96875 -24.707031 L 20.253906 -19.675781 L 20.253906 -11.09375 C 20.253906 -9.355469 19.351562 -8.515625 17.675781 -8.515625 L 14.578125 -8.515625 C 12.964844 -8.515625 12 -9.355469 12 -11.09375 L 12 -16.0625 C 12 -16.773438 11.675781 -17.09375 10.964844 -17.09375 L 4.257812 -17.09375 C 3.613281 -17.09375 3.226562 -16.773438 3.226562 -16.0625 L 3.226562 -9.289062 C 3.226562 -3.226562 6.515625 0 12.515625 0 L 19.738281 0 C 25.804688 0 29.027344 -3.226562 29.027344 -9.289062 L 29.027344 -24.191406 C 29.027344 -25.414062 28.449219 -26.125 27.351562 -26.578125 L 12 -31.609375 L 12 -40.511719 C 12 -42.1875 12.964844 -43.089844 14.578125 -43.089844 L 17.675781 -43.089844 C 19.417969 -43.089844 20.253906 -42.1875 20.253906 -40.511719 L 20.253906 -35.480469 C 20.253906 -34.835938 20.640625 -34.445312 21.289062 -34.445312 L 27.996094 -34.445312 C 28.707031 -34.445312 29.027344 -34.835938 29.027344 -35.480469 L 29.027344 -42.316406 C 29.027344 -48.378906 25.804688 -51.605469 19.738281 -51.605469 Z M 12.515625 -51.605469 "/></g></g></g><path stroke-linecap="butt" transform="matrix(2.997802, 0, 0, 2.642202, 59.531151, 179.952089)" fill="none" stroke-linejoin="miter" d="M 0.0000330273 0.000392104 L 85.312537 0.000392104 " stroke="#ffffff" stroke-width="1" stroke-opacity="1" stroke-miterlimit="4"/><g fill="#ffffff" fill-opacity="1"><g transform="translate(64.859138, 133.853244)"><g><path d="M 2.375 -7.8125 L -0.125 -3.84375 L 1.21875 -1.921875 L -0.0625 0.109375 L -6.21875 -9.125 L -4.984375 -11.09375 L 6 -9.5 L 4.6875 -7.421875 Z M 0.46875 -8.140625 L -3.671875 -8.859375 L -1.25 -5.421875 Z M 0.46875 -8.140625 "/></g></g></g><g fill="#ffffff" fill-opacity="1"><g transform="translate(72.181306, 122.475518)"><g><path d="M -1.546875 -14.515625 L 6.453125 -8.28125 L 5.265625 -6.765625 L -2.703125 -6.546875 L 2.15625 -2.765625 L 0.734375 -0.953125 L -7.265625 -7.1875 L -6.0625 -8.71875 L 1.890625 -8.90625 L -2.96875 -12.6875 Z M -1.546875 -14.515625 "/></g></g></g><g fill="#ffffff" fill-opacity="1"><g transform="translate(80.976508, 111.406608)"><g><path d="M 3.84375 -7.203125 L 0.609375 -3.796875 L 1.578125 -1.65625 L -0.09375 0.09375 L -4.3125 -10.171875 L -2.71875 -11.84375 L 7.734375 -8.140625 L 6.046875 -6.359375 Z M 2.0625 -7.890625 L -1.875 -9.421875 L -0.15625 -5.5625 Z M 2.0625 -7.890625 "/></g></g></g><g fill="#ffffff" fill-opacity="1"><g transform="translate(90.442943, 101.678043)"><g><path d="M -5.796875 -8.40625 L -4.046875 -9.953125 L 1.390625 -3.765625 L 5.203125 -7.125 L 6.46875 -5.703125 L 0.90625 -0.796875 Z M -5.796875 -8.40625 "/></g></g></g><g fill="#ffffff" fill-opacity="1"><g transform="translate(98.932648, 94.294417)"><g><path d="M 2.71875 -6.515625 L 4.859375 -3.625 L 2.984375 -2.21875 L 0.8125 -5.125 L -6.203125 -8.015625 L -4.21875 -9.5 L 0.640625 -7.515625 L 0.125 -12.734375 L 1.984375 -14.125 Z M 2.71875 -6.515625 "/></g></g></g><g fill="#ffffff" fill-opacity="1"><g transform="translate(108.846888, 87.051995)"><g><path d="M 7.015625 -6.578125 L 8.015625 -4.953125 L 0.46875 -0.28125 L -0.328125 -1.578125 L 0.875 -10.203125 L -3.75 -7.359375 L -4.75 -8.984375 L 2.5 -13.453125 L 3.296875 -12.171875 L 2.109375 -3.546875 Z M 7.015625 -6.578125 "/></g></g></g><g fill="#ffffff" fill-opacity="1"><g transform="translate(119.288896, 80.729774)"><g><path d="M 7.234375 -5.765625 L 8.078125 -4.078125 L 1.078125 -0.546875 L -3.484375 -9.609375 L 3.34375 -13.046875 L 4.1875 -11.34375 L -0.5625 -8.953125 L 0.4375 -7 L 4.640625 -9.109375 L 5.453125 -7.484375 L 1.25 -5.375 L 2.3125 -3.28125 Z M 7.234375 -5.765625 "/></g></g></g><g fill="#ffffff" fill-opacity="1"><g transform="translate(130.347944, 75.357478)"><g/></g></g><g fill="#ffffff" fill-opacity="1"><g transform="translate(136.587841, 72.781386)"><g><path d="M 1.6875 -2.96875 C 1.21875 -2.789062 0.753906 -2.804688 0.296875 -3.015625 C -0.160156 -3.234375 -0.476562 -3.585938 -0.65625 -4.078125 C -0.832031 -4.566406 -0.8125 -5.03125 -0.59375 -5.46875 C -0.375 -5.914062 -0.03125 -6.226562 0.4375 -6.40625 C 0.90625 -6.570312 1.363281 -6.550781 1.8125 -6.34375 C 2.257812 -6.144531 2.570312 -5.800781 2.75 -5.3125 C 2.925781 -4.820312 2.910156 -4.347656 2.703125 -3.890625 C 2.492188 -3.441406 2.15625 -3.132812 1.6875 -2.96875 Z M 1.6875 -2.96875 "/></g></g></g><g fill="#ffffff" fill-opacity="1"><g transform="translate(143.982276, 70.185653)"><g/></g></g><g fill="#ffffff" fill-opacity="1"><g transform="translate(150.340862, 68.208361)"><g><path d="M 7.1875 -3.875 L 2.609375 -2.828125 L 2.21875 -0.515625 L -0.125 0.03125 L 2.015625 -10.875 L 4.265625 -11.390625 L 10.953125 -2.5 L 8.5625 -1.953125 Z M 6.09375 -5.453125 L 3.640625 -8.875 L 2.953125 -4.734375 Z M 6.09375 -5.453125 "/></g></g></g><g fill="#ffffff" fill-opacity="1"><g transform="translate(163.549536, 65.292464)"><g><path d="M -0.078125 -10.21875 L 4.5 -10.796875 C 5.582031 -10.929688 6.570312 -10.84375 7.46875 -10.53125 C 8.363281 -10.21875 9.085938 -9.710938 9.640625 -9.015625 C 10.203125 -8.328125 10.546875 -7.472656 10.671875 -6.453125 C 10.804688 -5.453125 10.6875 -4.539062 10.3125 -3.71875 C 9.945312 -2.90625 9.367188 -2.238281 8.578125 -1.71875 C 7.785156 -1.195312 6.847656 -0.867188 5.765625 -0.734375 L 1.1875 -0.15625 Z M 5.40625 -2.625 C 6.414062 -2.75 7.179688 -3.128906 7.703125 -3.765625 C 8.234375 -4.398438 8.4375 -5.191406 8.3125 -6.140625 C 8.195312 -7.109375 7.800781 -7.835938 7.125 -8.328125 C 6.457031 -8.816406 5.617188 -9 4.609375 -8.875 L 2.484375 -8.59375 L 3.28125 -2.34375 Z M 5.40625 -2.625 "/></g></g></g><g fill="#ffffff" fill-opacity="1"><g transform="translate(177.836533, 63.615822)"><g><path d="M 10.25 -10.40625 L 10.5 -0.265625 L 8.15625 -0.203125 L 8.046875 -4.359375 L 3.4375 -4.25 L 3.546875 -0.09375 L 1.203125 -0.03125 L 0.953125 -10.171875 L 3.296875 -10.234375 L 3.390625 -6.234375 L 8 -6.34375 L 7.90625 -10.34375 Z M 10.25 -10.40625 "/></g></g></g><g fill="#ffffff" fill-opacity="1"><g transform="translate(191.99327, 63.423555)"><g><path d="M 9.15625 -1.28125 L 9.03125 0.609375 L 1.203125 0.078125 L 1.890625 -10.03125 L 9.53125 -9.5 L 9.40625 -7.625 L 4.078125 -8 L 3.921875 -5.796875 L 8.625 -5.46875 L 8.5 -3.65625 L 3.796875 -3.984375 L 3.640625 -1.65625 Z M 9.15625 -1.28125 "/></g></g></g><g fill="#ffffff" fill-opacity="1"><g transform="translate(204.151309, 64.344932)"><g><path d="M 7.5625 1.203125 L 6.0625 -1.90625 L 5.96875 -1.921875 L 3.9375 -2.234375 L 3.5 0.5625 L 1.1875 0.1875 L 2.78125 -9.828125 L 7.125 -9.140625 C 8 -8.992188 8.738281 -8.71875 9.34375 -8.3125 C 9.957031 -7.914062 10.394531 -7.414062 10.65625 -6.8125 C 10.925781 -6.21875 11.003906 -5.546875 10.890625 -4.796875 C 10.773438 -4.054688 10.492188 -3.441406 10.046875 -2.953125 C 9.597656 -2.472656 9.023438 -2.144531 8.328125 -1.96875 L 10.0625 1.59375 Z M 8.546875 -5.171875 C 8.640625 -5.734375 8.523438 -6.191406 8.203125 -6.546875 C 7.890625 -6.910156 7.382812 -7.148438 6.6875 -7.265625 L 4.796875 -7.5625 L 4.234375 -4.0625 L 6.125 -3.765625 C 6.820312 -3.648438 7.378906 -3.71875 7.796875 -3.96875 C 8.210938 -4.226562 8.460938 -4.628906 8.546875 -5.171875 Z M 8.546875 -5.171875 "/></g></g></g><g fill="#ffffff" fill-opacity="1"><g transform="translate(217.08535, 66.536172)"><g><path d="M 9.234375 0.390625 L 8.765625 2.21875 L 1.171875 0.296875 L 3.65625 -9.53125 L 11.078125 -7.65625 L 10.609375 -5.828125 L 5.4375 -7.140625 L 4.90625 -5 L 9.46875 -3.84375 L 9.015625 -2.09375 L 4.453125 -3.25 L 3.890625 -0.96875 Z M 9.234375 0.390625 "/></g></g></g><g fill="#ffffff" fill-opacity="1"><g transform="translate(228.960009, 69.722351)"><g/></g></g><g fill="#ffffff" fill-opacity="1"><g transform="translate(235.36281, 71.861928)"><g><path d="M 3.21875 -1.15625 C 2.75 -1.332031 2.410156 -1.644531 2.203125 -2.09375 C 2.003906 -2.550781 2 -3.023438 2.1875 -3.515625 C 2.375 -3.992188 2.691406 -4.332031 3.140625 -4.53125 C 3.597656 -4.726562 4.0625 -4.738281 4.53125 -4.5625 C 5 -4.375 5.332031 -4.054688 5.53125 -3.609375 C 5.738281 -3.160156 5.75 -2.695312 5.5625 -2.21875 C 5.375 -1.726562 5.050781 -1.378906 4.59375 -1.171875 C 4.144531 -0.972656 3.6875 -0.96875 3.21875 -1.15625 Z M 3.21875 -1.15625 "/></g></g></g><g fill="#ffffff" fill-opacity="1"><g transform="translate(242.649943, 74.7452)"><g/></g></g><g fill="#ffffff" fill-opacity="1"><g transform="translate(248.802855, 77.539502)"><g><path d="M 5.65625 -8.5 L 7.75 -7.453125 L 3.171875 1.59375 L 1.078125 0.546875 Z M 5.65625 -8.5 "/></g></g></g><g fill="#ffffff" fill-opacity="1"><g transform="translate(255.325924, 80.796833)"><g><path d="M 14.234375 -3.234375 L 8.984375 5.4375 L 7.34375 4.4375 L 6.203125 -3.453125 L 3.015625 1.8125 L 1.03125 0.625 L 6.28125 -8.046875 L 7.9375 -7.046875 L 9.0625 0.828125 L 12.25 -4.4375 Z M 14.234375 -3.234375 "/></g></g></g><g fill="#ffffff" fill-opacity="1"><g transform="translate(267.351113, 88.214043)"><g><path d="M 14.484375 -1.796875 L 8.390625 6.3125 L 6.515625 4.890625 L 9.015625 1.5625 L 5.34375 -1.203125 L 2.84375 2.125 L 0.96875 0.71875 L 7.0625 -7.390625 L 8.9375 -5.984375 L 6.53125 -2.78125 L 10.203125 -0.015625 L 12.609375 -3.21875 Z M 14.484375 -1.796875 "/></g></g></g><g fill="#ffffff" fill-opacity="1"><g transform="translate(278.57597, 96.841953)"><g><path d="M 7.96875 4.671875 L 6.703125 6.078125 L 0.890625 0.8125 L 7.703125 -6.6875 L 13.375 -1.546875 L 12.109375 -0.15625 L 8.15625 -3.734375 L 6.671875 -2.109375 L 10.15625 1.046875 L 8.9375 2.390625 L 5.453125 -0.765625 L 3.875 0.96875 Z M 7.96875 4.671875 "/></g></g></g><g fill="#ffffff" fill-opacity="1"><g transform="translate(287.541769, 105.105445)"><g><path d="M 5.1875 5.640625 L 5.9375 2.28125 L 5.859375 2.1875 L 4.484375 0.6875 L 2.40625 2.609375 L 0.8125 0.890625 L 8.28125 -5.984375 L 11.25 -2.765625 C 11.863281 -2.097656 12.28125 -1.414062 12.5 -0.71875 C 12.726562 -0.03125 12.757812 0.628906 12.59375 1.265625 C 12.4375 1.898438 12.078125 2.472656 11.515625 2.984375 C 10.960938 3.492188 10.363281 3.796875 9.71875 3.890625 C 9.070312 3.992188 8.421875 3.894531 7.765625 3.59375 L 6.90625 7.5 Z M 9.90625 1.234375 C 10.320312 0.847656 10.519531 0.414062 10.5 -0.0625 C 10.476562 -0.539062 10.226562 -1.039062 9.75 -1.5625 L 8.46875 -2.96875 L 5.859375 -0.5625 L 7.140625 0.84375 C 7.617188 1.363281 8.097656 1.648438 8.578125 1.703125 C 9.054688 1.765625 9.5 1.609375 9.90625 1.234375 Z M 9.90625 1.234375 "/></g></g></g><g fill="#ffffff" fill-opacity="1"><g transform="translate(296.330561, 114.948113)"><g><path d="M 8.6875 -5.375 L 10.140625 -3.53125 L 2.203125 2.78125 L 0.75 0.9375 Z M 8.6875 -5.375 "/></g></g></g><g fill="#ffffff" fill-opacity="1"><g transform="translate(300.878645, 120.701022)"><g><path d="M 8.65625 -1.96875 L 6.8125 -4.640625 L 8.375 -5.71875 L 13.390625 1.546875 L 11.828125 2.625 L 10 -0.03125 L 3.21875 4.65625 L 1.875 2.71875 Z M 8.65625 -1.96875 "/></g></g></g><g fill="#ffffff" fill-opacity="1"><g transform="translate(307.305399, 130.285457)"><g/></g></g><g fill="#ffffff" fill-opacity="1"><g transform="translate(83.470341, 276.289796)"><g><path d="M 7.8125 -6.625 L 9.203125 -5.359375 L 3.46875 0.984375 L 7.40625 4.546875 L 6.34375 5.734375 L 1.015625 0.90625 Z M 7.8125 -6.625 "/></g></g></g><g fill="#ffffff" fill-opacity="1"><g transform="translate(92.436423, 284.228844)"><g><path d="M 8.078125 4.1875 L 7.125 5.4375 L 1.078125 0.828125 L 7.234375 -7.234375 L 13.125 -2.75 L 12.15625 -1.5 L 7.765625 -4.84375 L 6.171875 -2.734375 L 10.0625 0.234375 L 9.125 1.453125 L 5.234375 -1.515625 L 3.53125 0.71875 Z M 8.078125 4.1875 "/></g></g></g><g fill="#ffffff" fill-opacity="1"><g transform="translate(102.870212, 291.990079)"><g><path d="M 7.5 -5.359375 L 4.65625 -7.171875 L 5.515625 -8.515625 L 12.765625 -3.890625 L 11.90625 -2.546875 L 9.078125 -4.34375 L 4.46875 2.859375 L 2.890625 1.84375 Z M 7.5 -5.359375 "/></g></g></g><g fill="#ffffff" fill-opacity="1"><g transform="translate(112.999823, 298.25351)"><g><path d="M 5.640625 -8.46875 L 7.015625 -7.703125 L 4.953125 -4.25 L 3.796875 -4.890625 Z M 5.640625 -8.46875 "/></g></g></g><g fill="#ffffff" fill-opacity="1"><g transform="translate(118.583237, 301.353035)"><g><path d="M 4 2.0625 C 3.289062 1.726562 2.65625 1.300781 2.09375 0.78125 C 1.53125 0.269531 1.140625 -0.238281 0.921875 -0.75 L 2.140625 -1.78125 C 2.378906 -1.3125 2.722656 -0.851562 3.171875 -0.40625 C 3.617188 0.0390625 4.117188 0.394531 4.671875 0.65625 C 5.359375 0.988281 5.921875 1.125 6.359375 1.0625 C 6.796875 1 7.101562 0.789062 7.28125 0.4375 C 7.40625 0.175781 7.410156 -0.0820312 7.296875 -0.34375 C 7.191406 -0.601562 7.019531 -0.847656 6.78125 -1.078125 C 6.539062 -1.316406 6.203125 -1.613281 5.765625 -1.96875 C 5.140625 -2.46875 4.648438 -2.898438 4.296875 -3.265625 C 3.941406 -3.640625 3.691406 -4.078125 3.546875 -4.578125 C 3.410156 -5.078125 3.484375 -5.628906 3.765625 -6.234375 C 4.015625 -6.734375 4.375 -7.125 4.84375 -7.40625 C 5.320312 -7.695312 5.894531 -7.832031 6.5625 -7.8125 C 7.226562 -7.789062 7.96875 -7.585938 8.78125 -7.203125 C 9.332031 -6.941406 9.84375 -6.609375 10.3125 -6.203125 C 10.789062 -5.804688 11.164062 -5.382812 11.4375 -4.9375 L 10.265625 -3.859375 C 9.984375 -4.296875 9.648438 -4.675781 9.265625 -5 C 8.890625 -5.332031 8.5 -5.597656 8.09375 -5.796875 C 7.414062 -6.117188 6.859375 -6.242188 6.421875 -6.171875 C 5.992188 -6.097656 5.691406 -5.875 5.515625 -5.5 C 5.390625 -5.238281 5.378906 -4.976562 5.484375 -4.71875 C 5.597656 -4.46875 5.773438 -4.226562 6.015625 -4 C 6.253906 -3.769531 6.59375 -3.472656 7.03125 -3.109375 C 7.632812 -2.628906 8.113281 -2.203125 8.46875 -1.828125 C 8.832031 -1.453125 9.082031 -1.015625 9.21875 -0.515625 C 9.363281 -0.015625 9.289062 0.53125 9 1.125 C 8.757812 1.632812 8.40625 2.023438 7.9375 2.296875 C 7.46875 2.566406 6.894531 2.691406 6.21875 2.671875 C 5.539062 2.648438 4.800781 2.445312 4 2.0625 Z M 4 2.0625 "/></g></g></g><g fill="#ffffff" fill-opacity="1"><g transform="translate(129.776335, 306.499749)"><g/></g></g><g fill="#ffffff" fill-opacity="1"><g transform="translate(136.522481, 309.27707)"><g><path d="M 10.1875 3.15625 L 12.15625 -3.265625 L 7.34375 1.0625 L 6.53125 0.8125 L 4.984375 -5.40625 L 3.015625 0.9375 L 1.296875 0.40625 L 4.296875 -9.28125 L 5.78125 -8.828125 L 7.640625 -1.21875 L 13.40625 -6.46875 L 14.875 -6 L 11.890625 3.6875 Z M 10.1875 3.15625 "/></g></g></g><g fill="#ffffff" fill-opacity="1"><g transform="translate(153.059562, 314.136204)"><g><path d="M 8.234375 -0.75 L 3.265625 -1.734375 L 1.84375 0.359375 L -0.078125 -0.015625 L 6.375 -9.078125 L 8.203125 -8.71875 L 10.71875 2.125 L 8.78125 1.75 Z M 7.921875 -2.328125 L 6.90625 -7.046875 L 4.1875 -3.0625 Z M 7.921875 -2.328125 "/></g></g></g><g fill="#ffffff" fill-opacity="1"><g transform="translate(167.017063, 316.744488)"><g><path d="M 5.265625 -3.734375 L 3.5 -2.25 L 3.234375 0.328125 L 1.359375 0.140625 L 2.40625 -9.953125 L 4.28125 -9.765625 L 3.75 -4.578125 L 9.25 -9.25 L 11.359375 -9.03125 L 6.65625 -4.953125 L 10.5625 1.09375 L 8.390625 0.875 Z M 5.265625 -3.734375 "/></g></g></g><g fill="#ffffff" fill-opacity="1"><g transform="translate(180.849137, 318.007611)"><g><path d="M 8.984375 -1.453125 L 8.96875 0.125 L 1.359375 0.015625 L 1.5 -10.125 L 8.90625 -10.015625 L 8.890625 -8.4375 L 3.375 -8.515625 L 3.328125 -5.875 L 8.21875 -5.8125 L 8.203125 -4.265625 L 3.3125 -4.328125 L 3.265625 -1.53125 Z M 8.984375 -1.453125 "/></g></g></g><g fill="#ffffff" fill-opacity="1"><g transform="translate(193.772335, 317.984784)"><g/></g></g><g fill="#ffffff" fill-opacity="1"><g transform="translate(200.89274, 317.538381)"><g><path d="M 0.328125 -10.234375 L 2.203125 -10.421875 L 3.234375 -0.328125 L 1.359375 -0.140625 Z M 0.328125 -10.234375 "/></g></g></g><g fill="#ffffff" fill-opacity="1"><g transform="translate(208.685003, 316.701185)"><g><path d="M 1.953125 -9 L -1.359375 -8.4375 L -1.625 -10.015625 L 6.84375 -11.4375 L 7.109375 -9.859375 L 3.796875 -9.3125 L 5.21875 -0.890625 L 3.375 -0.578125 Z M 1.953125 -9 "/></g></g></g><g fill="#ffffff" fill-opacity="1"><g transform="translate(220.409487, 314.537505)"><g/></g></g><g fill="#ffffff" fill-opacity="1"><g transform="translate(227.463467, 312.886925)"><g><path d="M 6.59375 -7.578125 C 7.1875 -7.566406 7.703125 -7.40625 8.140625 -7.09375 C 8.578125 -6.78125 8.894531 -6.320312 9.09375 -5.71875 C 9.351562 -4.882812 9.226562 -4.132812 8.71875 -3.46875 C 8.21875 -2.8125 7.347656 -2.289062 6.109375 -1.90625 L 1.296875 -0.40625 L -1.71875 -10.09375 L 2.8125 -11.5 C 3.957031 -11.863281 4.90625 -11.914062 5.65625 -11.65625 C 6.414062 -11.40625 6.914062 -10.882812 7.15625 -10.09375 C 7.300781 -9.613281 7.320312 -9.15625 7.21875 -8.71875 C 7.113281 -8.28125 6.90625 -7.898438 6.59375 -7.578125 Z M 0.53125 -9.234375 L 1.359375 -6.5625 L 3.890625 -7.359375 C 4.515625 -7.546875 4.960938 -7.804688 5.234375 -8.140625 C 5.503906 -8.484375 5.570312 -8.867188 5.4375 -9.296875 C 5.289062 -9.742188 5.015625 -10.023438 4.609375 -10.140625 C 4.203125 -10.253906 3.6875 -10.21875 3.0625 -10.03125 Z M 5.5625 -3.296875 C 6.945312 -3.722656 7.492188 -4.394531 7.203125 -5.3125 C 6.910156 -6.25 6.070312 -6.503906 4.6875 -6.078125 L 1.796875 -5.171875 L 2.671875 -2.390625 Z M 5.5625 -3.296875 "/></g></g></g><g fill="#ffffff" fill-opacity="1"><g transform="translate(241.11769, 308.438923)"><g><path d="M 7.671875 -4.890625 L 8.28125 -3.4375 L 1.25 -0.515625 L -2.640625 -9.875 L 4.203125 -12.71875 L 4.8125 -11.265625 L -0.28125 -9.15625 L 0.734375 -6.71875 L 5.25 -8.59375 L 5.84375 -7.171875 L 1.328125 -5.296875 L 2.390625 -2.703125 Z M 7.671875 -4.890625 "/></g></g></g><g fill="#ffffff" fill-opacity="1"><g transform="translate(253.06852, 303.312548)"><g><path d="M -0.875 -9.15625 L -3.859375 -7.625 L -4.578125 -9.046875 L 3.046875 -12.984375 L 3.765625 -11.5625 L 0.78125 -10.015625 L 4.703125 -2.421875 L 3.046875 -1.5625 Z M -0.875 -9.15625 "/></g></g></g><g fill="#ffffff" fill-opacity="1"><g transform="translate(263.676498, 297.696139)"><g><path d="M -1.609375 -9.078125 L -4.46875 -7.296875 L -5.296875 -8.640625 L 2.015625 -13.171875 L 2.84375 -11.828125 L -0.015625 -10.0625 L 4.5 -2.796875 L 2.90625 -1.8125 Z M -1.609375 -9.078125 "/></g></g></g><g fill="#ffffff" fill-opacity="1"><g transform="translate(273.826886, 291.257327)"><g><path d="M 6.265625 -6.609375 L 7.203125 -5.34375 L 1.09375 -0.8125 L -4.953125 -8.953125 L 0.984375 -13.359375 L 1.921875 -12.09375 L -2.5 -8.8125 L -0.921875 -6.6875 L 3 -9.609375 L 3.921875 -8.375 L 0 -5.453125 L 1.671875 -3.203125 Z M 6.265625 -6.609375 "/></g></g></g><g fill="#ffffff" fill-opacity="1"><g transform="translate(284.217289, 283.382527)"><g><path d="M 5.96875 -5.328125 L 2.453125 -6.15625 C 2.390625 -6.09375 2.289062 -6 2.15625 -5.875 L 0.453125 -4.359375 L 2.421875 -2.15625 L 1.015625 -0.90625 L -5.734375 -8.484375 L -2.625 -11.25 C -1.96875 -11.832031 -1.296875 -12.234375 -0.609375 -12.453125 C 0.078125 -12.671875 0.726562 -12.691406 1.34375 -12.515625 C 1.957031 -12.335938 2.507812 -11.972656 3 -11.421875 C 3.5 -10.859375 3.796875 -10.242188 3.890625 -9.578125 C 3.984375 -8.921875 3.859375 -8.257812 3.515625 -7.59375 L 7.484375 -6.65625 Z M 1.59375 -10.171875 C 1.164062 -10.648438 0.675781 -10.875 0.125 -10.84375 C -0.425781 -10.820312 -1.003906 -10.539062 -1.609375 -10 L -3.265625 -8.53125 L -0.578125 -5.515625 L 1.078125 -6.984375 C 1.679688 -7.523438 2.023438 -8.070312 2.109375 -8.625 C 2.191406 -9.175781 2.019531 -9.691406 1.59375 -10.171875 Z M 1.59375 -10.171875 "/></g></g></g></svg>